<svg xmlns="http://www.w3.org/2000/svg" viewBox="0 0 900 1100" role="img" aria-labelledby="title desc">
  <title id="title">EGV Pet &amp; Well Community Center signature logo</title>
  <desc id="desc">Single-line illustration of a woman embracing a dog with a handwritten signature reading EGV Pet &amp; Well Community Center.</desc>
  <defs>
    <style>
      :root { --ink: #1c1c1c; --accent: #0b8c6e; }
      .stroke { fill: none; stroke: var(--ink); stroke-width: 10; stroke-linecap: round; stroke-linejoin: round; }
      .accent { fill: none; stroke: var(--accent); stroke-width: 9; stroke-linecap: round; stroke-linejoin: round; }
      text { font-family: "Segoe Script", "Pacifico", "Caveat", cursive; }
    </style>
  </defs>

  <!-- figure and dog drawn as a flowing continuous line -->
  <path class="stroke" d="M352 120c-69 78-104 166-100 244 2 46 23 91 56 120 35 32 85 44 133 32 36-9 69-32 83-63 17-39 3-86-33-102-35-16-82 4-96 41-12 32 0 72 29 87 26 13 62 7 80-15 18-21 18-55-3-71-14-11-34-8-46 5-11 12-11 31-1 43 12 13 35 15 50 4" />

  <path class="stroke" d="M360 438c-34-12-64-37-82-68-23-39-26-90-8-136 21-54 72-94 126-99 42-4 85 14 113 46 30 36 42 87 31 133-7 29-24 55-46 72-28 21-63 30-96 27-40-4-77-25-96-56-20-32-22-74-5-107 14-26 39-45 65-51 21-5 44-2 63 7 26 12 47 36 55 62 9 29 5 63-11 87-12 19-31 33-52 38-25 6-53-1-71-17-21-18-30-49-22-73 6-17 20-32 36-39 15-6 33-5 48 1 19 8 35 25 42 45 8 24 4 53-11 73-8 12-20 22-33 27-17 7-37 6-53-1-16-7-29-21-35-37-5-15-4-32 1-46" />

  <path class="stroke" d="M470 402c26-17 53-30 82-36 26-5 56-4 79 8 22 12 39 36 41 60 2 28-15 56-40 66-29 12-66 2-80-24-12-22-6-52 13-67 23-18 62-12 84 10 19 19 26 49 16 73-10 25-36 43-64 45-30 2-58-16-70-42-14-29-9-66 11-92" />

  <path class="accent" d="M423 673c-36 0-77 8-108 28-38 24-56 64-58 95-2 27 8 52 23 68 19 21 48 32 76 35 37 4 76-7 110-23 54-25 99-66 143-106 19-18 38-36 60-49 20-12 43-21 65-24 37-5 75 3 106 24 9 6 17 14 26 19" />

  <path class="stroke" d="M218 673c-8 23-8 50 0 73 12 34 41 63 74 80 38 21 83 30 126 27 40-3 80-17 118-35 54-26 103-62 157-86 35-16 74-27 112-27 28 0 55 6 81 17" />

  <path class="stroke" d="M199 660c-44-11-94-12-136 10-38 20-64 57-72 92-6 27-4 56 7 81 15 34 44 62 77 78 45 21 98 25 147 20 58-6 113-25 167-46 71-28 141-61 215-82 52-15 108-22 160-14" />

  <path class="stroke" d="M513 496c32 38 79 61 128 64 47 2 94-16 130-45 30-24 53-58 59-95 6-38-7-78-35-104-32-30-80-42-121-31-43 12-78 47-91 88-12 36-8 77 12 109 18 28 48 50 81 56 35 6 72-5 97-29 27-26 38-67 27-101-10-32-39-59-71-67-34-9-73 2-94 31-15 20-20 47-14 71 6 24 23 46 45 58 23 12 51 14 75 5 29-10 52-35 60-64" />

  <path class="stroke" d="M330 265c-20-21-45-36-70-51-25-16-52-33-70-57-13-17-22-39-18-61 4-21 20-39 40-46 22-8 47-4 66 10 23 17 36 45 35 73-1 27-14 54-35 71-18 15-43 21-66 17-20-4-40-16-54-31" />

  <path class="stroke" d="M540 316c-8-13-10-30-5-44 7-19 26-33 45-35 24-4 51 8 63 30 9 16 9 37 1 54-9 18-27 32-47 35-20 3-41-5-55-19-10-9-17-21-20-34-2-11-1-22 2-33" />

  <text x="60" y="1010" font-size="82" fill="var(--ink)">
    EGV Pet &amp; Well Community Center
  </text>
  <text x="70" y="1060" font-size="36" fill="var(--accent)">
    Signature mark — caring for people and their pets
  </text>
</svg>
